<svg width="25" height="23" viewBox="0 0 25 23" fill="none" xmlns="http://www.w3.org/2000/svg">
<path d="M6.94444 19.6304C5.83333 19.6304 4.72222 18.6534 4.16667 18.2347C1.38889 16.2807 0.555556 15.5828 0 15.1641V21.0261C0 21.7968 0.621962 22.4218 1.38889 22.4218H12.5C13.2669 22.4218 13.8889 21.7968 13.8889 21.0261V15.1641C13.3333 15.5828 12.5 16.2807 9.72222 18.2347C9.16667 18.6534 8.05556 19.6304 6.94444 19.6304ZM12.5 11.2561H1.38889C0.621962 11.2561 0 11.8811 0 12.6518V13.3497C1.11111 14.1871 0.972222 14.1871 5 17.1181C5.41667 17.3973 6.25 18.2347 6.94444 18.2347C7.63889 18.2347 8.47222 17.3973 8.88889 17.2577C12.9167 14.3267 12.7778 14.3267 13.8889 13.4892V12.6518C13.8889 11.8811 13.2669 11.2561 12.5 11.2561ZM23.6111 7.06893H9.72222C8.95529 7.06893 8.33333 7.69395 8.33333 8.46465V9.86037H12.5C13.9414 9.86037 15.1298 10.9691 15.2652 12.3823L15.2778 12.3727V18.2347H23.6111C24.378 18.2347 25 17.6097 25 16.839V8.46465C25 7.69395 24.378 7.06893 23.6111 7.06893ZM22.2222 12.6518H19.4444V9.86037H22.2222V12.6518ZM6.94444 8.46465C6.94444 6.92543 8.19054 5.67321 9.72222 5.67321H19.4444V1.48605C19.4444 0.715353 18.8225 0.090332 18.0556 0.090332H4.16667C3.39974 0.090332 2.77778 0.715353 2.77778 1.48605V9.86037H6.94444V8.46465Z" fill="#D5D2D2"/>
</svg>
