<svg width="25" height="26" viewBox="0 0 25 26" fill="none" xmlns="http://www.w3.org/2000/svg">
<path d="M24.2866 18.3804L18.8179 16.0251C18.5843 15.9251 18.3246 15.904 18.078 15.965C17.8315 16.0261 17.6113 16.166 17.4507 16.3637L15.0288 19.3372C11.2279 17.5363 8.16904 14.4624 6.37695 10.6428L9.33594 8.20902C9.53305 8.04792 9.67256 7.82667 9.73335 7.57876C9.79414 7.33086 9.7729 7.0698 9.67285 6.83511L7.3291 1.33947C7.21929 1.08647 7.02508 0.879914 6.77996 0.755405C6.53483 0.630896 6.25416 0.596241 5.98633 0.657416L0.908203 1.83505C0.649985 1.89498 0.419602 2.04108 0.254656 2.24953C0.0897096 2.45797 -5.94829e-05 2.71644 2.95713e-08 2.98276C2.95713e-08 15.5688 10.1514 25.7504 22.6562 25.7504C22.9213 25.7506 23.1787 25.6604 23.3862 25.4947C23.5937 25.3289 23.7392 25.0973 23.7988 24.8378L24.9707 19.7347C25.0312 19.4642 24.996 19.181 24.8711 18.9338C24.7463 18.6867 24.5396 18.491 24.2866 18.3804V18.3804Z" fill="#D5D2D2"/>
</svg>
